<?xml version="1.0" encoding="UTF-8"?>
<svg id="_レイヤー_1" xmlns="http://www.w3.org/2000/svg" version="1.1" viewBox="0 0 24 24">
  <!-- Generator: Adobe Illustrator 29.6.1, SVG Export Plug-In . SVG Version: 2.1.1 Build 9)  -->
  <defs>
    <style>
      .st0 {
        fill: none;
        stroke: #000;
        stroke-miterlimit: 10;
        stroke-width: 1.98px;
      }
    </style>
  </defs>
  <path class="st0" d="M3,5v14c0,.55.45,1,1,1h16c.55,0,1-.45,1-1h0V5c0-.55-.45-1-1-1H4c-.55,0-1,.45-1,1Z"/>
  <path d="M14,17h4v2h-4v-2Z"/>
  <path d="M12,12c1.05,0,1.89-.85,1.89-1.89s-.85-1.89-1.89-1.89-1.89.85-1.89,1.89.85,1.89,1.89,1.89ZM12,12.95c-1.26,0-3.79.63-3.79,1.89v.95h7.58v-.95c0-1.26-2.53-1.89-3.79-1.89Z"/>
</svg>