<?xml version="1.0" encoding="UTF-8"?>
<svg id="_レイヤー_1" xmlns="http://www.w3.org/2000/svg" version="1.1" viewBox="0 0 24 24">
  <!-- Generator: Adobe Illustrator 29.6.1, SVG Export Plug-In . SVG Version: 2.1.1 Build 9)  -->
  <defs>
    <style>
      .st0 {
        fill: #fff;
      }
    </style>
  </defs>
  <path class="st0" d="M5,21c-.55,0-1.02-.2-1.41-.59s-.59-.86-.59-1.41V5c0-.55.2-1.02.59-1.41s.86-.59,1.41-.59h11l5,5v11c0,.55-.2,1.02-.59,1.41s-.86.59-1.41.59H5ZM5,19h14v-10h-4v-4H5v14ZM7,17h10v-2H7v2ZM7,9h5v-2h-5v2ZM7,13h10v-2H7v2Z"/>
</svg>